<?xml version="1.0" encoding="UTF-8" standalone="no"?>
<svg width="200px" height="26px" viewBox="0 0 200 26" version="1.1" xmlns="http://www.w3.org/2000/svg" xmlns:xlink="http://www.w3.org/1999/xlink">
    <!-- Generator: Sketch 39.1 (31720) - http://www.bohemiancoding.com/sketch -->
    <title>LOGO Copy</title>
    <desc>Created with Sketch.</desc>
    <defs>
        <polygon id="path-1" points="9.571261 14.2697822 9.571261 0.503648889 0.383343109 0.503648889 0.383343109 14.2697822 9.571261 14.2697822"></polygon>
    </defs>
    <g id="WHAT-WE-DO" stroke="none" stroke-width="1" fill="none" fill-rule="evenodd">
        <g id="HOME" transform="translate(-45.000000, -27.000000)">
            <g id="LOGO-Copy" transform="translate(45.000000, 27.000000)">
                <g id="logo-copy" transform="translate(0.000000, 6.000000)">
                    <path d="M6.85630499,6.93736889 C8.44398827,6.93736889 8.90674487,6.06550222 8.90674487,5.35310222 C8.90674487,4.79843556 8.56539589,3.82834667 7.23870968,3.82834667 L5.428739,3.82834667 L5.428739,6.93736889 L6.85630499,6.93736889 L6.85630499,6.93736889 Z M14.2346041,14.9985244 L10.0727273,14.9985244 L6.99706745,9.09536889 L5.428739,9.09536889 L5.428739,12.7209244 L7.13782991,12.7209244 L7.13782991,14.9985244 L0,14.9985244 L0,12.7209244 L1.87038123,12.7209244 L1.87038123,3.82834667 L0,3.82834667 L0,1.54959111 L8.50498534,1.54959111 C11.1583578,1.54959111 12.6058651,3.27252444 12.6058651,5.31323556 C12.6058651,6.85879111 11.8422287,7.94674667 10.2533724,8.66030222 L12.4651026,12.7209244 L14.2346041,12.7209244 L14.2346041,14.9985244 L14.2346041,14.9985244 Z" id="Fill-1" fill="#E34949"></path>
                    <polygon id="Fill-3" fill="#E34949" points="18.8983578 12.7208089 20.5065689 12.7208089 20.5065689 3.82823111 18.8983578 3.82823111 18.8983578 1.54947556 30.9012903 1.54947556 30.9012903 5.80769778 28.3083284 5.80769778 28.3083284 3.82823111 24.0655132 3.82823111 24.0655132 6.91645333 27.4831085 6.91645333 27.4831085 9.19636444 24.0655132 9.19636444 24.0655132 12.7208089 28.3083284 12.7208089 28.3083284 10.7205422 30.9012903 10.7205422 30.9012903 14.9984089 18.8983578 14.9984089"></polygon>
                    <path d="M43.2860997,12.7208089 C46.0004692,12.7208089 47.2667449,10.9978756 47.2667449,8.32449778 C47.2667449,5.43214222 45.819824,3.82823111 43.1652786,3.82823111 L41.9388856,3.82823111 L41.9388856,12.7208089 L43.2860997,12.7208089 Z M36.3095601,12.7208089 L38.3799413,12.7208089 L38.3799413,3.82823111 L36.3095601,3.82823111 L36.3095601,1.54947556 L43.44739,1.54947556 C45.9195308,1.54947556 47.6286217,2.00534222 49.016305,3.37236444 C50.3828739,4.71858667 50.9658651,6.46174222 50.9658651,8.30427556 C50.9658651,11.7894311 48.7746628,14.9984089 44.4321408,14.9984089 L36.3095601,14.9984089 L36.3095601,12.7208089 Z" id="Fill-5" fill="#E34949"></path>
                    <polygon id="Fill-7" fill="#FFFFFF" points="64.4760704 3.82840444 62.8666862 3.82840444 62.8666862 1.54964889 69.6226979 1.54964889 69.6226979 3.82840444 68.0543695 3.82840444 70.3259238 10.5606711 72.6584751 3.82840444 71.1505572 3.82840444 71.1505572 1.54964889 76.9007038 1.54964889 76.9007038 3.82840444 75.2919062 3.82840444 71.3312023 15.0968044 68.5769501 15.0968044"></polygon>
                    <polygon id="Fill-9" fill="#FFFFFF" points="81.604868 12.7208089 83.2130792 12.7208089 83.2130792 3.82823111 81.604868 3.82823111 81.604868 1.54947556 93.6078006 1.54947556 93.6078006 5.80769778 91.0142522 5.80769778 91.0142522 3.82823111 86.7720235 3.82823111 86.7720235 6.91645333 90.1896188 6.91645333 90.1896188 9.19636444 86.7720235 9.19636444 86.7720235 12.7208089 91.0142522 12.7208089 91.0142522 10.7205422 93.6078006 10.7205422 93.6078006 14.9984089 81.604868 14.9984089"></polygon>
                    <polygon id="Fill-11" fill="#FFFFFF" points="98.7748974 12.7208089 100.603636 12.7208089 100.603636 3.82823111 98.7748974 3.82823111 98.7748974 1.54947556 104.485161 1.54947556 109.491026 9.94805333 109.530909 9.94805333 109.530909 3.82823111 107.761408 3.82823111 107.761408 1.54947556 113.892786 1.54947556 113.892786 3.82823111 111.963754 3.82823111 111.963754 14.9984089 108.906862 14.9984089 103.07695 5.11494222 103.037067 5.11494222 103.037067 12.7208089 104.746158 12.7208089 104.746158 14.9984089 98.7748974 14.9984089"></polygon>
                    <polygon id="Fill-13" fill="#FFFFFF" points="131.304985 6.95712889 128.932551 6.95712889 128.932551 3.82846222 126.881525 3.82846222 126.881525 12.72104 128.932551 12.72104 128.932551 14.99864 121.272727 14.99864 121.272727 12.72104 123.322581 12.72104 123.322581 3.82846222 121.272727 3.82846222 121.272727 6.95712889 118.89912 6.95712889 118.89912 1.54970667 131.304985 1.54970667"></polygon>
                    <path d="M136.20956,1.54947556 L142.563226,1.54947556 L142.563226,3.82823111 L141.376716,3.82823111 L141.376716,10.6616089 C141.376716,11.9876089 141.779648,12.8785422 143.146217,12.8785422 C144.292845,12.8785422 145.03654,12.3048089 145.03654,10.7800533 L145.03654,3.82823111 L143.91044,3.82823111 L143.91044,1.54947556 L149.177889,1.54947556 L149.177889,3.82823111 L147.469384,3.82823111 L147.469384,11.3537867 C147.469384,14.4824533 144.694604,15.15672 142.763812,15.15672 C140.089912,15.15672 137.818358,14.14792 137.818358,10.8592089 L137.818358,3.82823111 L136.20956,3.82823111 L136.20956,1.54947556 Z" id="Fill-15" fill="#FFFFFF"></path>
                    <path d="M160.87912,6.93736889 C162.46739,6.93736889 162.928974,6.06550222 162.928974,5.35310222 C162.928974,4.79843556 162.587038,3.82834667 161.260352,3.82834667 L159.450968,3.82834667 L159.450968,6.93736889 L160.87912,6.93736889 Z M168.257419,14.9985244 L164.095543,14.9985244 L161.019296,9.09536889 L159.450968,9.09536889 L159.450968,12.7209244 L161.159472,12.7209244 L161.159472,14.9985244 L154.022815,14.9985244 L154.022815,12.7209244 L155.892023,12.7209244 L155.892023,3.82834667 L154.022815,3.82834667 L154.022815,1.54959111 L162.527801,1.54959111 C165.181173,1.54959111 166.62868,3.27252444 166.62868,5.31323556 C166.62868,6.85879111 165.864457,7.94674667 164.276188,8.66030222 L166.487918,12.7209244 L168.257419,12.7209244 L168.257419,14.9985244 Z" id="Fill-17" fill="#FFFFFF"></path>
                    <polygon id="Fill-19" fill="#FFFFFF" points="172.921466 12.7208089 174.530264 12.7208089 174.530264 3.82823111 172.921466 3.82823111 172.921466 1.54947556 184.923812 1.54947556 184.923812 5.80769778 182.330264 5.80769778 182.330264 3.82823111 178.088622 3.82823111 178.088622 6.91645333 181.506217 6.91645333 181.506217 9.19636444 178.088622 9.19636444 178.088622 12.7208089 182.330264 12.7208089 182.330264 10.7205422 184.923812 10.7205422 184.923812 14.9984089 172.921466 14.9984089"></polygon>
                    <g id="Group-23" transform="translate(190.029326, 0.907391)">
                        <mask id="mask-2" fill="white">
                            <use xlink:href="#path-1"></use>
                        </mask>
                        <g id="Clip-22"></g>
                        <path d="M0.523519062,9.51467111 L2.83554252,9.51467111 C2.79565982,10.9608489 3.74052786,11.9528933 4.92703812,11.9528933 C5.75108504,11.9528933 6.4343695,11.3184933 6.4343695,10.5067156 C6.4343695,8.05000444 0.383343109,8.38684889 0.383343109,4.16907111 C0.383343109,1.55404889 2.37278592,0.503648889 4.06252199,0.503648889 C5.12821114,0.503648889 5.99214076,0.919071111 6.55519062,1.75280444 L6.59624633,1.75280444 L6.59624633,0.642315556 L8.88774194,0.642315556 L8.88774194,4.72316 L6.59624633,4.72316 C6.41501466,3.49480444 5.67073314,2.74196 4.62557185,2.74196 C3.84140762,2.74196 3.27835777,3.19840444 3.27835777,3.83164889 C3.27835777,6.00929333 9.5716129,5.51471556 9.5716129,10.2675156 C9.5716129,13.4770711 7.05900293,14.2697822 5.61090909,14.2697822 C4.40387097,14.2697822 3.4801173,13.8329822 2.87601173,12.9634267 L2.83554252,12.9634267 L2.83554252,14.0912489 L0.523519062,14.0912489 L0.523519062,9.51467111 Z" id="Fill-21" fill="#FFFFFF" mask="url(#mask-2)"></path>
                    </g>
                </g>
                <polygon id="Fill-24" fill="#FFFFFF" points="56.3589443 25.9740578 57.1501466 25.9740578 57.1501466 5.77777778e-05 56.3589443 5.77777778e-05"></polygon>
            </g>
        </g>
    </g>
</svg>